<svg xmlns="http://www.w3.org/2000/svg" viewBox="525 590 485 355" fill="#333333">
<g transform="translate(0,1536) scale(0.1,-0.1)">
<path d="M6850 9381 c-82 -26 -143 -65 -206 -134 -88 -95 -134 -211 -134 -338
l0 -49 100 0 100 0 0 43 c0 86 42 180 104 235 71 62 83 63 496 60 l375 -3 47
-27 c87 -52 126 -121 143 -255 l7 -53 100 0 100 0 -7 78 c-20 218 -145 384
-336 443 -55 17 -95 19 -447 18 -341 0 -394 -2 -442 -18z"/>
<path d="M5680 8729 c-143 -28 -287 -163 -320 -300 -15 -60 -22 -2017 -8
-2114 19 -130 106 -248 227 -308 l66 -32 1650 0 1650 0 67 33 c84 41 167 128
200 209 l23 58 3 689 3 690 -70 -69 c-39 -38 -82 -75 -96 -82 l-25 -14 0 -542
c0 -303 -4 -568 -10 -601 -11 -71 -46 -119 -111 -156 l-44 -25 -1550 -2 c-889
-1 -1573 2 -1604 7 -70 12 -123 48 -158 107 l-28 48 -3 678 c-1 372 1 677 6
677 4 0 50 -26 102 -57 157 -94 710 -368 768 -381 34 -8 152 -12 318 -12 l264
0 0 -228 c0 -253 2 -261 65 -282 52 -17 86 -5 151 53 33 29 131 113 219 187
88 74 193 164 234 200 l74 65 206 6 c264 7 276 11 721 245 288 151 342 184
410 253 122 124 160 236 160 466 0 166 -10 227 -50 312 -51 110 -167 198 -291
222 -68 12 -3154 13 -3219 0z m3201 -199 c61 -17 102 -52 132 -110 28 -55 28
-55 25 -230 -3 -167 -4 -177 -30 -225 -29 -56 -94 -126 -147 -159 -84 -53
-556 -302 -641 -338 l-75 -33 -232 -5 -231 -5 -35 -30 c-20 -16 -121 -101
-225 -187 -104 -86 -194 -164 -202 -172 -7 -9 -16 -16 -21 -16 -5 0 -8 74 -6
163 1 128 -1 170 -13 191 -28 54 -42 56 -378 56 -252 0 -318 3 -363 16 -56 16
-403 190 -619 310 -142 78 -204 134 -247 221 -27 57 -28 62 -28 228 0 147 3
175 19 205 34 64 78 100 146 121 39 12 3128 11 3171 -1z"/>
</g>
</svg>
